<?xml version="1.0" encoding="UTF-8" standalone="no"?>
<svg
   viewBox="0 0 48 48"
   width="48px"
   height="48px"
   version="1.1"
   id="svg25"
   sodipodi:docname="icons8-nextcloud.svg"
   inkscape:version="1.1.1 (3bf5ae0d25, 2021-09-20)"
   xmlns:inkscape="http://www.inkscape.org/namespaces/inkscape"
   xmlns:sodipodi="http://sodipodi.sourceforge.net/DTD/sodipodi-0.dtd"
   xmlns="http://www.w3.org/2000/svg"
   xmlns:svg="http://www.w3.org/2000/svg">
  <defs
     id="defs29" />
  <sodipodi:namedview
     id="namedview27"
     pagecolor="#ffffff"
     bordercolor="#666666"
     borderopacity="1.0"
     inkscape:pageshadow="2"
     inkscape:pageopacity="0.0"
     inkscape:pagecheckerboard="true"
     showgrid="false"
     inkscape:zoom="10.59187"
     inkscape:cx="20.912265"
     inkscape:cy="24.87757"
     inkscape:window-width="1536"
     inkscape:window-height="841"
     inkscape:window-x="1912"
     inkscape:window-y="482"
     inkscape:window-maximized="1"
     inkscape:current-layer="svg25" />
  <linearGradient
     id="pOoc3r0SC5TgfojtmZvf8a"
     x1="6.378"
     x2="7.551"
     y1="16.893"
     y2="30.296"
     gradientUnits="userSpaceOnUse">
    <stop
       offset="0"
       stop-color="#28afea"
       id="stop2" />
    <stop
       offset="1"
       stop-color="#0b88da"
       id="stop4" />
  </linearGradient>
  <path
     fill="url(#pOoc3r0SC5TgfojtmZvf8a)"
     d="M7,31c-3.859,0-7-3.14-7-7s3.141-7,7-7s7,3.14,7,7S10.859,31,7,31z M7,21 c-1.654,0-3,1.346-3,3s1.346,3,3,3s3-1.346,3-3S8.654,21,7,21z"
     id="path7"
     style="fill:#000000" />
  <linearGradient
     id="pOoc3r0SC5TgfojtmZvf8b"
     x1="40.39"
     x2="41.61"
     y1="17.026"
     y2="30.974"
     gradientUnits="userSpaceOnUse">
    <stop
       offset="0"
       stop-color="#28afea"
       id="stop9" />
    <stop
       offset="1"
       stop-color="#0b88da"
       id="stop11" />
  </linearGradient>
  <path
     fill="url(#pOoc3r0SC5TgfojtmZvf8b)"
     d="M41,31c-3.859,0-7-3.14-7-7s3.141-7,7-7 s7,3.14,7,7S44.859,31,41,31z M41,21c-1.654,0-3,1.346-3,3s1.346,3,3,3s3-1.346,3-3S42.654,21,41,21z"
     id="path14"
     style="fill:#000000" />
  <g
     id="g23"
     style="fill:#000000">
    <linearGradient
       id="pOoc3r0SC5TgfojtmZvf8c"
       x1="23.041"
       x2="24.959"
       y1="13.041"
       y2="34.959"
       gradientUnits="userSpaceOnUse">
      <stop
         offset="0"
         stop-color="#28afea"
         id="stop16" />
      <stop
         offset="1"
         stop-color="#0b88da"
         id="stop18" />
    </linearGradient>
    <path
       fill="url(#pOoc3r0SC5TgfojtmZvf8c)"
       d="M24,35c-6.065,0-11-4.935-11-11 s4.935-11,11-11s11,4.935,11,11S30.065,35,24,35z M24,17c-3.859,0-7,3.14-7,7s3.141,7,7,7s7-3.14,7-7S27.859,17,24,17z"
       id="path21"
       style="fill:#000000" />
  </g>
</svg>
